<svg width="117" height="83" viewBox="0 0 117 83" fill="none" xmlns="http://www.w3.org/2000/svg">
<path d="M91.1971 46.4296C91.1971 62.1308 76.1545 74.8591 57.5985 74.8591C39.0425 74.8591 23.9999 62.1308 23.9999 46.4296C23.9999 30.7284 39.0425 18 57.5985 18C76.1545 18 91.1971 30.7284 91.1971 46.4296Z" fill="#008AD7"/>
<path fill-rule="evenodd" clip-rule="evenodd" d="M88.1373 4.88634C103.755 16.5165 96.9384 33.4876 96.9384 33.4876C96.9384 33.4876 115.94 39.12 116.299 59.896C116.657 80.672 92.8834 82.6786 92.8834 82.6786L24.3265 83C24.3265 83 0.987346 80.4385 0.0382189 60.7967C-0.9865 39.5932 18.9349 33.7462 18.9349 33.7462C17.9858 29.2664 16.2338 20.3051 26.7869 13.6736C39.1265 5.91997 49.1353 15.9132 49.1353 15.9132C63.114 -11.5683 88.1373 4.88634 88.1373 4.88634ZM36.0612 61.4528C36.0612 61.4528 40.7622 71.386 54.0004 71.5334C54.0004 71.5334 68.9304 72.7833 82.7257 56.2135L80.4032 55.7954C80.4032 55.7954 79.5797 56.9814 78.0373 58.6216C72.1225 55.7748 69.0616 52.6006 68.8064 52.3287C70.8865 50.9214 72.9671 49.2656 74.8442 47.3362C74.8442 47.3362 91.0425 31.3909 73.3924 27.5667L69.9168 31.6711C69.9168 31.6711 81.4629 29.9058 73.1528 41.5259C73.1528 41.5259 70.9676 44.5362 66.3666 47.9656C65.5921 44.9142 65.9107 40.2827 70.5367 34.1465L68.251 34.2471C63.5438 40.7303 59.298 43.9056 54.6587 44.7947C50.4024 45.6104 46.6337 44.7675 46.6337 44.7675L45.9048 45.78C53.51 47.0176 55.3687 49.1305 55.3687 49.1305C55.3687 49.1305 56.9122 49.979 57.0345 53.3612C53.3504 54.9686 49.0024 56.3309 43.9593 57.1037C43.9593 57.1037 42.8529 57.2688 41.3338 57.3801C40.7211 55.4907 40.3986 53.2867 40.5293 50.6968C40.5293 50.6968 41.5768 33.4876 62.0031 25.178L52.994 23.7802C47.8231 26.3773 43.0664 31.4471 43.0664 31.4471C43.0664 31.4471 36.8841 37.2591 34.5672 45.6182C34.6678 45.2306 34.7751 44.8648 34.8852 44.5562C34.8852 44.5562 30.5678 48.3115 30.0585 52.1674C29.5569 55.9689 31.7093 58.5227 35.3372 59.8743C35.5546 60.3986 35.7948 60.9246 36.0612 61.4528ZM56.6331 41.9763C58.5813 41.9357 60.1854 40.3688 60.2694 38.4228C60.3623 36.2738 58.6269 34.4968 56.4757 34.5413C54.528 34.5813 52.925 36.1487 52.84 38.0948C52.746 40.2432 54.4841 42.0202 56.6331 41.9763ZM34.0996 48C34.0451 48.308 34.0151 48.4976 34.0151 48.4976C29.4919 53.6546 33.9967 56.1089 33.9967 56.1089C34.1546 56.1895 34.3276 56.2607 34.5083 56.3268C33.7687 53.4189 33.7171 50.6155 34.0996 48ZM61.2945 56.0451C57.7543 58.4499 53.6137 66.4687 53.6137 66.4687L51.4731 66.4442C52.8737 63.3773 53.7561 60.8491 54.2843 58.7612C53.7421 58.9442 53.4352 59.0337 53.4352 59.0337C49.1734 60.4871 44.8504 61.2422 41 61.2916C45.0461 67.3227 52.4133 68.4047 52.4133 68.4047C62.7701 69.7953 70.6288 64.1318 74.8467 60.02C66.1301 55.2834 61.2945 56.0451 61.2945 56.0451Z" fill="white"/>
</svg>
